<?xml version="1.0" encoding="iso-8859-1"?>
<!-- Generator: Adobe Illustrator 19.0.0, SVG Export Plug-In . SVG Version: 6.00 Build 0)  -->
<svg version="1.1" id="Layer_1" xmlns="http://www.w3.org/2000/svg" xmlns:xlink="http://www.w3.org/1999/xlink" x="0px" y="0px"
	 viewBox="0 0 512 512" style="enable-background:new 0 0 512 512;" xml:space="preserve">
<rect x="250.1" y="126.835" transform="matrix(-0.7071 -0.7071 0.7071 -0.7071 494.5739 488.5285)" style="fill:#B38A65;" width="196.728" height="30"/>
<rect x="148.528" y="43.472" transform="matrix(-0.7071 -0.7071 0.7071 -0.7071 178.8658 357.7614)" style="fill:#C8AD92;" width="30" height="196.728"/>
<path style="fill:#FFDB2D;" d="M500.136,512H11.864V195.58h488.272L500.136,512L500.136,512z"/>
<path style="fill:#FEC000;" d="M500.136,512H256.395V195.58h243.741V512z"/>
<g>
	<path style="fill:#FC0025;" d="M149.167,266.718v81.343h-22.341v-31.85H99.56v31.85H77.219v-81.343H99.56v30.017h27.267v-30.017
		L149.167,266.718L149.167,266.718z"/>
	<path style="fill:#FC0025;" d="M197.63,348.749c-5.806,0-11.095-1.183-15.868-3.552c-4.775-2.366-8.861-5.479-12.259-9.337
		c-3.4-3.856-6.034-8.267-7.905-13.233c-1.872-4.964-2.807-10.082-2.807-15.352c0-5.345,0.974-10.501,2.922-15.467
		c1.947-4.964,4.677-9.337,8.192-13.118c3.512-3.781,7.656-6.797,12.431-9.051c4.772-2.252,10.025-3.379,15.753-3.379
		c5.803,0,11.093,1.185,15.868,3.552c4.772,2.368,8.859,5.499,12.258,9.394c3.398,3.895,6.015,8.326,7.848,13.29
		c1.833,4.966,2.75,10.044,2.75,15.237c0,5.347-0.974,10.483-2.921,15.41c-1.948,4.926-4.64,9.28-8.077,13.061
		s-7.561,6.817-12.373,9.108C208.628,347.603,203.358,348.749,197.63,348.749z M181.476,307.505c0,2.75,0.324,5.405,0.974,7.962
		c0.648,2.56,1.661,4.832,3.036,6.817c1.374,1.987,3.093,3.591,5.156,4.812c2.062,1.222,4.468,1.833,7.218,1.833
		c2.825,0,5.27-0.63,7.332-1.89c2.063-1.26,3.741-2.902,5.041-4.926c1.298-2.023,2.271-4.334,2.921-6.932
		c0.648-2.596,0.974-5.23,0.974-7.905c0-2.75-0.344-5.402-1.031-7.962c-0.688-2.558-1.701-4.812-3.036-6.76
		c-1.337-1.947-3.036-3.512-5.098-4.697c-2.063-1.184-4.468-1.776-7.218-1.776c-2.826,0-5.252,0.613-7.275,1.833
		c-2.025,1.223-3.706,2.846-5.041,4.869c-1.337,2.025-2.331,4.316-2.978,6.874C181.8,302.216,181.476,304.832,181.476,307.505z"/>
	<path style="fill:#FC0025;" d="M308.072,286.195H284.7v61.867h-22.34v-61.867h-23.486v-19.477h69.199v19.477H308.072z"/>
</g>
<g>
	<path style="fill:#C2001B;" d="M374.177,328.585v19.477h-57.972v-81.343h56.94v19.477h-34.599v11.457h29.558v18.102h-29.558v12.832
		h35.631V328.585z"/>
	<path style="fill:#C2001B;" d="M384.601,348.062v-81.343h22.341v61.867h36.891v19.477L384.601,348.062L384.601,348.062z"/>
</g>
<polygon style="fill:#C8AD92;" points="256,382.432 264.134,407.466 290.457,407.466 269.161,422.938 277.295,447.972 256,432.5 
	234.705,447.972 242.839,422.938 221.544,407.466 247.866,407.466 "/>
<g>
	<polygon style="fill:#B38A65;" points="336.112,382.432 344.246,407.466 370.568,407.466 349.273,422.938 357.407,447.972 
		336.112,432.5 314.817,447.972 322.951,422.938 301.655,407.466 327.978,407.466 	"/>
	<polygon style="fill:#B38A65;" points="416.482,382.432 424.616,407.466 450.938,407.466 429.643,422.938 437.777,447.972 
		416.482,432.5 395.186,447.972 403.32,422.938 382.025,407.466 408.347,407.466 	"/>
</g>
<g>
	<polygon style="fill:#C8AD92;" points="95.691,382.432 103.825,407.466 130.147,407.466 108.852,422.938 116.986,447.972 
		95.691,432.5 74.396,447.972 82.53,422.938 61.235,407.466 87.557,407.466 	"/>
	<polygon style="fill:#C8AD92;" points="176.061,382.432 184.195,407.466 210.517,407.466 189.222,422.938 197.356,447.972 
		176.061,432.5 154.765,447.972 162.899,422.938 141.604,407.466 167.926,407.466 	"/>
</g>
<path style="fill:#FC0025;" d="M256,98.741c-27.224,0-49.371-22.147-49.371-49.37C206.629,22.147,228.777,0,256,0
	s49.37,22.147,49.37,49.371C305.371,76.593,283.223,98.741,256,98.741z M256,30c-10.682,0-19.371,8.689-19.371,19.371
	c0,10.681,8.689,19.37,19.371,19.37c10.681,0,19.37-8.689,19.37-19.37C275.371,38.689,266.681,30,256,30z"/>
<path style="fill:#C2001B;" d="M256,0c-0.035,0-0.07,0.003-0.105,0.003v30.003c0.036,0,0.07-0.005,0.105-0.005
	c10.681,0,19.37,8.689,19.37,19.371c0,10.681-8.689,19.37-19.37,19.37c-0.036,0-0.07-0.005-0.105-0.005V98.74
	c0.035,0,0.07,0.003,0.105,0.003c27.223,0,49.37-22.147,49.37-49.37C305.371,22.147,283.223,0,256,0z"/>
<polygon style="fill:#B38A65;" points="290.457,407.466 264.134,407.466 256,382.432 255.895,382.756 255.895,432.576 256,432.5 
	277.295,447.972 269.161,422.938 "/>
<polygon style="fill:#C2001B;" points="255.895,266.718 255.895,286.195 262.36,286.195 262.36,348.062 284.7,348.062 
	284.7,286.195 308.072,286.195 308.072,266.718 "/>
<g>
</g>
<g>
</g>
<g>
</g>
<g>
</g>
<g>
</g>
<g>
</g>
<g>
</g>
<g>
</g>
<g>
</g>
<g>
</g>
<g>
</g>
<g>
</g>
<g>
</g>
<g>
</g>
<g>
</g>
</svg>
